<svg id="visual" viewBox="0 0 960 540" width="960" height="540" xmlns="http://www.w3.org/2000/svg" xmlns:xlink="http://www.w3.org/1999/xlink" version="1.1"><rect x="0" y="0" width="960" height="540" fill="#071927"></rect><path d="M0 239L22.8 227.3C45.7 215.7 91.3 192.3 137 178.2C182.7 164 228.3 159 274 162.8C319.7 166.7 365.3 179.3 411.2 193.2C457 207 503 222 548.8 235C594.7 248 640.3 259 686 264C731.7 269 777.3 268 823 258.8C868.7 249.7 914.3 232.3 937.2 223.7L960 215L960 541L937.2 541C914.3 541 868.7 541 823 541C777.3 541 731.7 541 686 541C640.3 541 594.7 541 548.8 541C503 541 457 541 411.2 541C365.3 541 319.7 541 274 541C228.3 541 182.7 541 137 541C91.3 541 45.7 541 22.8 541L0 541Z" fill="#fa7268"></path><path d="M0 290L22.8 296.2C45.7 302.3 91.3 314.7 137 320.5C182.7 326.3 228.3 325.7 274 308C319.7 290.3 365.3 255.7 411.2 236.5C457 217.3 503 213.7 548.8 222C594.7 230.3 640.3 250.7 686 271.7C731.7 292.7 777.3 314.3 823 319.2C868.7 324 914.3 312 937.2 306L960 300L960 541L937.2 541C914.3 541 868.7 541 823 541C777.3 541 731.7 541 686 541C640.3 541 594.7 541 548.8 541C503 541 457 541 411.2 541C365.3 541 319.7 541 274 541C228.3 541 182.7 541 137 541C91.3 541 45.7 541 22.8 541L0 541Z" fill="#ef5f67"></path><path d="M0 283L22.8 290.2C45.7 297.3 91.3 311.7 137 324.2C182.7 336.7 228.3 347.3 274 355.8C319.7 364.3 365.3 370.7 411.2 366.7C457 362.7 503 348.3 548.8 341.2C594.7 334 640.3 334 686 330.5C731.7 327 777.3 320 823 327.7C868.7 335.3 914.3 357.7 937.2 368.8L960 380L960 541L937.2 541C914.3 541 868.7 541 823 541C777.3 541 731.7 541 686 541C640.3 541 594.7 541 548.8 541C503 541 457 541 411.2 541C365.3 541 319.7 541 274 541C228.3 541 182.7 541 137 541C91.3 541 45.7 541 22.8 541L0 541Z" fill="#e34c67"></path><path d="M0 359L22.8 359.7C45.7 360.3 91.3 361.7 137 365.5C182.7 369.3 228.3 375.7 274 382.8C319.7 390 365.3 398 411.2 398.8C457 399.7 503 393.3 548.8 385.5C594.7 377.7 640.3 368.3 686 370.3C731.7 372.3 777.3 385.7 823 387.5C868.7 389.3 914.3 379.7 937.2 374.8L960 370L960 541L937.2 541C914.3 541 868.7 541 823 541C777.3 541 731.7 541 686 541C640.3 541 594.7 541 548.8 541C503 541 457 541 411.2 541C365.3 541 319.7 541 274 541C228.3 541 182.7 541 137 541C91.3 541 45.7 541 22.8 541L0 541Z" fill="#d53867"></path><path d="M0 441L22.8 449.8C45.7 458.7 91.3 476.3 137 485.5C182.7 494.7 228.3 495.3 274 496C319.7 496.7 365.3 497.3 411.2 488.5C457 479.7 503 461.3 548.8 454.2C594.7 447 640.3 451 686 451C731.7 451 777.3 447 823 451.5C868.7 456 914.3 469 937.2 475.5L960 482L960 541L937.2 541C914.3 541 868.7 541 823 541C777.3 541 731.7 541 686 541C640.3 541 594.7 541 548.8 541C503 541 457 541 411.2 541C365.3 541 319.7 541 274 541C228.3 541 182.7 541 137 541C91.3 541 45.7 541 22.8 541L0 541Z" fill="#c62368"></path></svg>